<?xml version="1.0" encoding="UTF-8"?>
<svg version="1.1" xmlns="http://www.w3.org/2000/svg" viewBox="0 0 2000 377" width="2000" height="377">
<path d="M0 0 C2.98165507 2.68492684 5.89523019 5.43613345 8.80078125 8.203125 C9.86039062 9.18345703 9.86039062 9.18345703 10.94140625 10.18359375 C38.16293739 36.13257363 53.46074718 71.98755195 60.80078125 108.203125 C60.94773437 108.91678223 61.0946875 109.63043945 61.24609375 110.36572266 C70.07733378 155.77849554 57.10393564 205.99715722 31.5847168 243.84960938 C25.08959843 253.26361679 17.57927835 261.83492235 9.80078125 270.203125 C9.18976563 270.86828125 8.57875 271.5334375 7.94921875 272.21875 C1.84276141 278.61104152 -5.15758008 283.89478068 -12.19921875 289.203125 C-13.04484375 289.84378906 -13.89046875 290.48445313 -14.76171875 291.14453125 C-46.843823 314.50160377 -88.50365472 327.40843411 -128.19921875 325.203125 C-129.37242676 325.1414917 -129.37242676 325.1414917 -130.56933594 325.07861328 C-178.33061795 322.3595734 -219.80068222 303.05090783 -254.19921875 270.203125 C-254.8540625 269.60113281 -255.50890625 268.99914062 -256.18359375 268.37890625 C-288.20564078 238.11044751 -306.17597552 191.06723832 -307.484375 147.6875 C-308.40126769 94.73286864 -290.85175412 47.72769361 -254.38671875 9.20703125 C-188.21702197 -58.56051332 -77.85681119 -63.47917698 0 0 Z " fill="#49BCE2" transform="translate(327.19921875,48.796875)"/>
<path d="M0 0 C104.16877583 0 104.16877583 0 118.9375 4.1875 C119.71343506 4.40180664 120.48937012 4.61611328 121.28881836 4.83691406 C135.75599635 9.07004178 149.24497578 17.75183362 157 31 C162.99742366 43.48376774 165.59939703 56.86043523 161.375 70.375 C157.63983303 80.02635802 152.09693635 87.54281308 145 95 C146.01707031 95.60134766 146.01707031 95.60134766 147.0546875 96.21484375 C163.06787789 105.99575367 175.86985919 119.11678987 180.49609375 137.75390625 C183.41307108 156.54466719 179.09574466 173.23570136 168.12109375 188.63671875 C151.08861557 209.01168743 125.26177972 216.03509643 100 219 C66.74971428 221.37502041 33.33499996 220 0 220 C0 147.4 0 74.8 0 0 Z M40 34 C40 53.47 40 72.94 40 93 C77.9770945 94.5411027 77.9770945 94.5411027 112.09375 79.01171875 C118.29190925 72.26741023 119.59628713 66.72157091 119.43359375 57.58203125 C118.64061244 51.03100548 115.81130593 46.56613391 110.984375 42.16015625 C100.61465502 34.53207087 87.66730375 33.83601222 75.25390625 33.90234375 C74.35667847 33.90335083 73.45945068 33.90435791 72.53503418 33.90539551 C69.21084296 33.91059373 65.88667008 33.92455479 62.5625 33.9375 C55.116875 33.958125 47.67125 33.97875 40 34 Z M54.375 119.4375 C53.39764893 119.47665527 52.42029785 119.51581055 51.41333008 119.55615234 C50.50091553 119.59820801 49.58850098 119.64026367 48.6484375 119.68359375 C47.44453369 119.73858032 47.44453369 119.73858032 46.21630859 119.79467773 C43.67563611 119.97341778 43.67563611 119.97341778 40 121 C40 141.46 40 161.92 40 183 C48.415 183.04125 56.83 183.0825 65.5 183.125 C68.12130859 183.14320801 70.74261719 183.16141602 73.44335938 183.18017578 C105.75143644 183.74724863 105.75143644 183.74724863 134 170 C140.00411736 163.28049844 141.37331774 158.29217851 141.2734375 149.29296875 C140.70017074 142.38919902 137.29425198 137.37845841 132.28125 132.7265625 C117.05123183 121.19973368 97.36423069 118.77764697 78.8125 118.875 C77.88066895 118.87765869 76.94883789 118.88031738 75.98876953 118.88305664 C68.77871729 118.93051491 61.57884295 119.14065881 54.375 119.4375 Z " fill="#FFC10E" transform="translate(1168,83)"/>
<path d="M0 0 C14.85 0 29.7 0 45 0 C49.02397362 10.34736075 53.02934675 20.64955762 56.7578125 31.09765625 C57.62896195 33.52417914 58.50013822 35.9506924 59.37133789 38.37719727 C59.82440337 39.64157839 60.27737476 40.90599323 60.73025513 42.17044067 C63.14760489 48.91829899 65.5747714 55.66262655 68.00390625 62.40625 C68.25215338 63.09551134 68.50040051 63.78477268 68.75617027 64.49492073 C74.54966954 80.57388625 80.45976279 96.60899696 86.38470459 112.63995361 C92.44729599 129.04416278 98.4601594 145.46434335 104.35961914 161.92797852 C104.60460648 162.61058746 104.84959381 163.29319641 105.102005 163.99649048 C105.74470174 165.78814928 106.38561346 167.58044813 107.02636719 169.37280273 C107.92067181 171.93178364 107.92067181 171.93178364 109 174 C109.22898483 173.36458282 109.45796967 172.72916565 109.69389343 172.07449341 C130.37616874 114.68489217 151.13657044 57.32400947 172 0 C186.19 0 200.38 0 215 0 C213.87498369 6.75009786 213.87498369 6.75009786 212.53564453 10.21801758 C212.08603111 11.3945414 212.08603111 11.3945414 211.62733459 12.59483337 C211.13504616 13.85693382 211.13504616 13.85693382 210.6328125 15.14453125 C210.28669418 16.04518814 209.94057587 16.94584503 209.58396912 17.87379456 C208.43646338 20.85550973 207.28079698 23.83398997 206.125 26.8125 C205.31066134 28.92316428 204.49678617 31.03400743 203.68334961 33.14501953 C201.55183268 38.67186144 199.41306219 44.19586449 197.27178955 49.71893311 C196.0444742 52.8852618 194.81857439 56.05213411 193.59326172 59.21923828 C188.46769082 72.46662148 183.32820891 85.70857789 178.18493652 98.94909668 C175.07250915 106.96278755 171.96290427 114.9775737 168.85403442 122.99264526 C168.07913805 124.99034736 167.30413476 126.98800799 166.52902222 128.98562622 C161.95531804 140.7736734 157.39312681 152.56609844 152.8476429 164.36505508 C152.09253729 166.32503978 151.33724284 168.2849516 150.58189392 170.24484253 C150.08168935 171.54278325 149.58149097 172.84072636 149.08129883 174.13867188 C148.83486224 174.77814821 148.58842566 175.41762455 148.33452129 176.07647896 C146.6530906 180.44026543 144.97416917 184.80501282 143.2956543 189.16992188 C142.40810832 191.47398451 141.52049754 193.77802219 140.6328125 196.08203125 C140.23775009 197.11125198 139.84268768 198.14047272 139.43565369 199.20088196 C136.73969808 206.19150804 133.88423824 213.07782823 131 220 C115.49 220 99.98 220 84 220 C77.11819974 202.88183017 70.37383176 185.71933313 63.75 168.5 C62.7931372 166.01621094 61.83613433 163.53247638 60.87890625 161.04882812 C59.14775523 156.55674705 57.41709015 152.06447942 55.68709564 147.57195282 C51.25096167 136.05223901 46.8051668 124.53625739 42.35906982 113.02038574 C40.54597078 108.32393238 38.73342973 103.62726375 36.92086792 98.93060303 C33.12064316 89.08365167 29.31943973 79.23707917 25.5166626 69.39111328 C23.77330097 64.87727057 22.03025076 60.36330762 20.28726578 55.84931946 C19.10713446 52.7930821 17.92677796 49.73693202 16.74609375 46.6809082 C14.22021749 40.14299417 11.69851195 33.60350069 9.18127441 27.06225586 C7.99035328 23.97499249 6.79196616 20.89069915 5.59277344 17.80664062 C4.85073306 15.88678769 4.10886225 13.96686921 3.3671875 12.046875 C3.02446808 11.17113831 2.68174866 10.29540161 2.3286438 9.39312744 C2.02022552 8.59147156 1.71180725 7.78981567 1.39404297 6.96386719 C1.12332977 6.26686707 0.85261658 5.56986694 0.57369995 4.85174561 C0 3 0 3 0 0 Z " fill="#FFC10E" transform="translate(478,83)"/>
<path d="M0 0 C12.54 0 25.08 0 38 0 C38.33 45.87 38.66 91.74 39 139 C44.94 133.555 44.94 133.555 51 128 C53.69092962 125.80970845 56.38192502 123.61943204 59.0859375 121.4453125 C63.13700628 118.04589017 66.95912433 114.42182918 70.80810547 110.79736328 C74.27061478 107.55451548 77.79286848 104.46570521 81.5 101.5 C86.51614355 97.48412141 91.20800335 93.18591081 95.87890625 88.77929688 C96.96375715 87.75683763 98.05585498 86.74199701 99.15605164 85.73606873 C100.37308833 84.5902344 101.55348339 83.40403432 102.69099426 82.17921448 C106.35705671 78.47854305 109.03571037 76.55380711 114.31445312 76.20532227 C116.30372976 76.20641741 118.29324797 76.24519776 120.28125 76.31640625 C121.86238586 76.3312632 121.86238586 76.3312632 123.47546387 76.34642029 C126.81843459 76.3853811 130.15803407 76.47317224 133.5 76.5625 C135.77599401 76.59763736 138.05203985 76.62957209 140.328125 76.65820312 C145.88655288 76.73508193 151.44303557 76.85198498 157 77 C154.68097789 79.93414497 152.47899061 82.64112787 149.625 85.0625 C148.93019531 85.65804687 148.23539063 86.25359375 147.51953125 86.8671875 C146.68808594 87.57101563 145.85664062 88.27484375 145 89 C137.36026067 95.47849895 129.81224762 102.01701052 122.48046875 108.84375 C119.02286368 112.06289955 115.51970949 115.21244243 111.9453125 118.30078125 C109.6633471 120.29406428 107.42771426 122.33493027 105.1875 124.375 C100.80790092 128.33141696 96.28269953 132.06951804 91.6953125 135.78125 C87.69501308 139.0742501 83.83890997 142.52128406 80 146 C82.48743963 150.78561754 85.91985825 154.1107653 89.75 157.8125 C94.11822187 162.10069337 98.34058438 166.40250882 102.296875 171.078125 C105.23500094 174.39362491 108.43957569 177.44633797 111.58984375 180.55859375 C114.26854532 183.27202727 116.74608118 186.10777023 119.22265625 189.00390625 C121.23268777 191.26132626 123.34832953 193.37735713 125.5 195.5 C128.26560408 198.22829407 130.91287031 200.98516834 133.4375 203.9375 C136.93990413 208.02499253 140.74672035 211.76193467 144.57421875 215.54296875 C147.33634991 218.34068292 149.91144702 221.25557767 152.4609375 224.24609375 C153.88940097 225.87396202 155.37455769 227.3775441 156.9375 228.875 C159 231 159 231 159 233 C144.14619804 237.02811347 126.39561605 239.96371534 112 233 C99.96901542 225.68176798 90.08231007 214.66486631 80.5 204.5 C79.86091957 203.82272102 79.22183914 203.14544205 78.56339264 202.44763947 C69.44807657 192.74609225 60.66233414 182.77611553 52.00219727 172.66821289 C47.84690986 167.85322609 43.53402908 163.53402908 39 159 C38.67 183.42 38.34 207.84 38 233 C25.46 233 12.92 233 0 233 C0 156.11 0 79.22 0 0 Z " fill="#FFC10E" transform="translate(1818,70)"/>
<path d="M0 0 C16.14886379 14.61472173 22.11835709 32.61255504 23.53125 53.953125 C24.06440485 76.17901795 18.10561526 97.54768433 2.578125 113.8828125 C1.84078125 114.62144531 1.1034375 115.36007812 0.34375 116.12109375 C-0.26984375 116.74628906 -0.8834375 117.37148438 -1.515625 118.015625 C-13.64119001 129.49345684 -30.35528155 135.7369385 -46.65625 138.12109375 C-47.39359375 138.23195313 -48.1309375 138.3428125 -48.890625 138.45703125 C-76.19300051 141.84692351 -102.91268636 136.91076499 -125.03125 120.24609375 C-139.47756409 108.04593324 -147.20997918 90.48317839 -149.40625 71.93359375 C-149.51414946 70.33089202 -149.59698767 68.72632991 -149.65625 67.12109375 C-149.69621094 66.22519531 -149.73617188 65.32929688 -149.77734375 64.40625 C-150.27271109 42.69750484 -145.18732231 21.5357156 -129.9597168 5.40087891 C-97.58580314 -27.74940062 -35.44607522 -29.66926233 0 0 Z M-103.15625 31.9375 C-110.86046138 43.15274522 -111.6977739 53.85940117 -110.65625 67.12109375 C-108.32472664 78.64548066 -100.82169206 88.98565888 -91.33984375 95.78125 C-78.94973561 103.67291512 -65.1557956 105.67566176 -50.84375 102.99609375 C-38.78874073 100.18023044 -29.35530433 94.9775754 -21.65625 85.12109375 C-15.06374843 73.65257143 -13.32529923 59.57037917 -16.71875 46.68359375 C-21.51088358 33.69556816 -30.11204774 25.21405808 -42.44921875 19.41015625 C-63.07724096 11.11874659 -88.55168667 13.9275457 -103.15625 31.9375 Z " fill="#FFC10E" transform="translate(1536.65625,166.87890625)"/>
<path d="M0 0 C1.59794185 1.35799531 3.18206772 2.73246353 4.75 4.125 C5.44867187 4.71796875 6.14734375 5.3109375 6.8671875 5.921875 C19.5457691 17.46579755 25.87498166 35.43694898 26.87548828 52.23144531 C27.81479825 74.23678736 24.03125123 97.55660221 8.796875 114.51953125 C-8.80407541 133.17643256 -31.93347876 141.32278495 -57.2578125 142.3125 C-81.4714102 142.69157785 -104.70484306 137.59561396 -123.25 121.125 C-123.94867187 120.53203125 -124.64734375 119.9390625 -125.3671875 119.328125 C-137.17014877 108.58145988 -144.52281578 90.81712296 -145.42700195 75.03564453 C-145.90750884 49.33331197 -143.69733007 25.89581083 -124.9375 6.375 C-93.62332987 -23.20241784 -34.2230475 -26.68769759 0 0 Z M-97.25 32.125 C-105.79276154 43.54494941 -108.71428953 54.00013169 -107.25 68.125 C-104.84250177 81.22293681 -97.94027451 91.2947663 -87.25 99.125 C-79.39139103 103.85460693 -71.40245041 106.3824427 -62.25 107.125 C-61.60804687 107.19074219 -60.96609375 107.25648438 -60.3046875 107.32421875 C-48.64548889 107.96702628 -36.57905848 103.92930369 -27.25 97.125 C-26.198125 96.403125 -25.14625 95.68125 -24.0625 94.9375 C-15.49796322 86.37296322 -11.37593066 76.01870047 -10.9375 63.9375 C-11.92019902 51.94857201 -15.81774252 38.86321673 -25.203125 30.640625 C-45.65247263 15.49874164 -78.55950026 11.23561793 -97.25 32.125 Z " fill="#FFC10E" transform="translate(1744.25,163.875)"/>
<path d="M0 0 C11.29790925 10.63332636 14.74787887 24.46881132 15.2593689 39.56225586 C15.38278221 46.03137475 15.33824502 52.49902504 15.29296875 58.96875 C15.28736136 61.34484588 15.28309668 63.72094528 15.28010559 66.0970459 C15.26874678 72.2980537 15.23935834 78.49884484 15.20599365 84.69976807 C15.17509778 91.0485135 15.16155886 97.39729453 15.14648438 103.74609375 C15.11447872 116.16417216 15.06178565 128.58203402 15 141 C5.1 141 -4.8 141 -15 141 C-16.32 138.03 -17.64 135.06 -19 132 C-19.90878906 132.45890625 -20.81757812 132.9178125 -21.75390625 133.390625 C-33.19833003 139.03137645 -45.09589759 143.49642527 -58 144 C-59.07121094 144.0515625 -60.14242187 144.103125 -61.24609375 144.15625 C-82.31237281 144.69126661 -102.38435661 139.88055525 -118.3125 125.3125 C-126.66915579 116.52597509 -129.38716301 106.42644156 -129.27734375 94.67578125 C-128.53525169 84.84044842 -124.13508349 76.88560575 -117.0703125 70.1640625 C-92.55660247 49.60128009 -54.21493746 50.55890687 -24 50 C-24.86574049 36.75868562 -24.86574049 36.75868562 -32 26 C-53.84140747 11.54979125 -90.01047755 23.33122728 -113 28 C-114.16674788 23.76659978 -115.32415835 19.53079252 -116.47290039 15.29248047 C-116.86518385 13.85037176 -117.2600316 12.40895808 -117.6574707 10.96826172 C-118.22759306 8.89987775 -118.78851188 6.82918717 -119.34765625 4.7578125 C-119.85824585 2.88826904 -119.85824585 2.88826904 -120.37915039 0.98095703 C-121 -2 -121 -2 -120 -4 C-117.25542572 -5.06733444 -114.55751015 -6.00264273 -111.75 -6.875 C-110.90824219 -7.13821045 -110.06648437 -7.4014209 -109.19921875 -7.67260742 C-102.86341691 -9.5837288 -96.49904606 -11.07374458 -90 -12.3125 C-88.74848145 -12.55105713 -88.74848145 -12.55105713 -87.47167969 -12.79443359 C-60.10579557 -17.70861547 -22.46181181 -19.32198865 0 0 Z M-86.9375 90.8125 C-88.65776818 94.3542286 -88.21548873 96.28956072 -87 100 C-81.51504154 106.27491171 -72.81645951 109.4659612 -64.69726562 110.21142578 C-49.30880187 111.0519468 -37.37966533 108.92217026 -24 101 C-24 94.07 -24 87.14 -24 80 C-57.47510475 78.04409451 -57.47510475 78.04409451 -86.9375 90.8125 Z " fill="#FFC10E" transform="translate(1082,162)"/>
<path d="M0 0 C1.06142215 0.92380061 2.11014793 1.86242737 3.14453125 2.81640625 C5.74326243 5.25818949 5.74326243 5.25818949 8.5859375 5.015625 C11.27766028 3.883185 13.31024027 2.53058441 15.625 0.75 C30.67416616 -10.07212096 48.55963875 -13.92144008 66.81640625 -11.4921875 C86.60901866 -7.95996744 103.84664643 1.02572831 116.1875 17.1875 C125.51604238 30.68933766 130.55789585 43.94639115 130.375 60.4375 C130.38660156 61.47970703 130.39820313 62.52191406 130.41015625 63.59570312 C130.30657196 91.4426124 113.75801151 109.41919067 95.12890625 128.00390625 C94.11508389 129.01840432 93.10140983 130.03305061 92.08787537 131.0478363 C89.98606183 133.15110891 87.88248861 135.25260031 85.77758789 137.3527832 C83.07854991 140.04606565 80.38410671 142.74389371 77.69091892 145.44302464 C75.60899417 147.52855365 73.52470538 149.61170684 71.4396801 151.69413567 C70.44416854 152.68898061 69.44939799 153.68456764 68.45538521 154.68091011 C67.07496726 156.06385866 65.69101273 157.4432744 64.30688477 158.82250977 C63.52128677 159.60731216 62.73568878 160.39211456 61.92628479 161.20069885 C59.32543061 163.63010074 58.29249717 163.96688711 54.6875 164.375 C51 164 51 164 48.125 161.9375 C45.48131989 158.28300102 44.69289176 156.52984659 45 152 C49.32547381 145.64779472 55.583691 140.32798848 61.04516602 134.97136497 C62.53832183 133.50534332 64.02664889 132.03457296 65.51367188 130.56233215 C69.73621939 126.38204231 73.96146122 122.20460373 78.203125 118.04370117 C80.81365521 115.48218941 83.41388834 112.91059017 86.00805664 110.33251381 C86.98659677 109.36374522 87.96874687 108.3986066 88.95483398 107.43752098 C97.02510618 99.56744483 103.64437523 91.2348852 107.875 80.6875 C108.26429688 79.74261719 108.65359375 78.79773438 109.0546875 77.82421875 C113.54227325 64.41709273 111.49970991 49.45483853 105.5 36.9375 C98.81488264 23.80711771 88.0422838 15.01359212 74.125 10.125 C60.08903547 5.77660315 45.57875098 7.06747893 32.39453125 13.21484375 C23.40427996 18.14590368 16.15811692 25.77403363 9 33 C4.88544656 31.40097923 2.32913979 28.39017114 -0.625 25.25 C-11.70396515 13.90287296 -25.52654179 8.03554553 -41.5 7.6875 C-55.97195897 7.82359993 -69.39784348 13.88916031 -79.9296875 23.72265625 C-91.68081504 36.64889654 -94.78429164 50.22556023 -94.44140625 67.09765625 C-93.82275464 79.17008979 -89.05277502 89.06525766 -81 98 C-80.4396254 98.64552826 -79.87925079 99.29105652 -79.30189514 99.95614624 C-71.30643824 109.05278914 -62.63175451 117.49310417 -54.05859375 126.0390625 C-52.32245828 127.77332986 -50.58654571 129.50782038 -48.85084534 131.24252319 C-44.31084068 135.77873359 -39.76783958 140.31193122 -35.22418213 144.84448242 C-30.5766579 149.48172564 -25.9320094 154.12184726 -21.28710938 158.76171875 C-12.19419945 167.84394595 -3.09821504 176.92308742 6 186 C9.9717011 184.17738456 12.63426823 181.56017582 15.625 178.4375 C21.73287645 172.1126332 21.73287645 172.1126332 25.8125 171.75 C29.44165156 172.03463934 31.14296165 172.77785906 34 175 C35.92438822 177.44922137 35.99974967 178.99582784 36.1875 182.125 C34.56362887 190.96188009 22.89000973 199.91738551 16 205 C11.46260792 206.7954535 7.88579593 207.58966503 3 207 C-3.92412124 203.79970699 -9.12394928 198.30854459 -14.42602539 192.97802734 C-15.33278519 192.0781308 -16.23954498 191.17823425 -17.17378235 190.25106812 C-19.64360983 187.79907396 -22.10390491 185.33772667 -24.56196523 182.87394285 C-26.62396083 180.80883976 -28.69055616 178.74837007 -30.7571134 176.68783343 C-35.63828902 171.82067047 -40.51166432 166.94579488 -45.38012695 162.06591797 C-50.38079734 157.05378173 -55.3940875 152.05453362 -60.41388327 147.06155813 C-64.74245237 142.75524131 -69.06311371 138.44110035 -73.37764543 134.12071955 C-75.94607803 131.54893741 -78.51722946 128.98004584 -81.09599495 126.41862106 C-83.97662042 123.55652567 -86.84055208 120.67824821 -89.70336914 117.79833984 C-90.54460327 116.96677368 -91.3858374 116.13520752 -92.25256348 115.27844238 C-99.23109758 108.21292657 -104.99820672 100.31964212 -108.75 91.0625 C-109.11609375 90.18722656 -109.4821875 89.31195313 -109.859375 88.41015625 C-112.95308287 79.16081731 -114.55962971 70.51245446 -114.5 60.75 C-114.49500488 59.66315918 -114.49000977 58.57631836 -114.48486328 57.45654297 C-114.07294056 38.30071621 -105.92257957 22.41733057 -92.7578125 8.65625 C-67.63342053 -15.39726625 -29.14876917 -18.87769642 0 0 Z " fill="#FCFEFE" transform="translate(197,91)"/>
<path d="M0 0 C12.87 0 25.74 0 39 0 C39 14.52 39 29.04 39 44 C57.48 44 75.96 44 95 44 C95 54.89 95 65.78 95 77 C76.52 77 58.04 77 39 77 C39.06180145 89.77951404 39.06180145 89.77951404 39.16015625 102.55859375 C39.20840611 107.77490519 39.2524826 112.99100674 39.27099609 118.20751953 C39.28620147 122.41584393 39.32071502 126.62361724 39.36830902 130.83169556 C39.38308301 132.43270055 39.39103872 134.03378424 39.39188385 135.63485718 C39.30547602 149.0939206 39.30547602 149.0939206 46.25 160.3125 C52.46627577 164.12703286 58.07893907 165.51119017 65.25 165.375 C66.00780762 165.36919922 66.76561523 165.36339844 67.54638672 165.35742188 C76.80592147 165.15387419 85.89550131 163.59661355 95 162 C96.92531133 167.26425214 98.0420187 172.57940581 99.125 178.0625 C99.30675781 178.94744141 99.48851562 179.83238281 99.67578125 180.74414062 C99.93294922 182.03288086 99.93294922 182.03288086 100.1953125 183.34765625 C100.35016113 184.12117432 100.50500977 184.89469238 100.66455078 185.69165039 C101.02287223 188.15739225 101.05664364 190.51180446 101 193 C74.65515835 199.31814073 44.88062628 205.85257668 19.3984375 192.65234375 C10.06457665 186.79917014 4.25762923 178.65158848 1.46408081 167.9462738 C-0.49472254 158.66564427 -0.25252562 149.42230325 -0.1953125 139.98828125 C-0.19157538 138.16554419 -0.18873172 136.34280511 -0.18673706 134.52006531 C-0.17915561 129.75752062 -0.15955522 124.99510083 -0.1373291 120.23260498 C-0.11675147 115.35886321 -0.10771003 110.48510096 -0.09765625 105.61132812 C-0.07630335 96.07415547 -0.04116692 86.53710773 0 77 C-7.92 77 -15.84 77 -24 77 C-24 66.11 -24 55.22 -24 44 C-16.08 44 -8.16 44 0 44 C0 29.48 0 14.96 0 0 Z " fill="#FFC00E" transform="translate(824,106)"/>
<path d="M0 0 C12.87 0 25.74 0 39 0 C39 50.49 39 100.98 39 153 C26.13 153 13.26 153 0 153 C0 102.51 0 52.02 0 0 Z " fill="#FFC00F" transform="translate(724,150)"/>
<path d="M0 0 C14.19 0 28.38 0 43 0 C43 14.19 43 28.38 43 43 C28.81 43 14.62 43 0 43 C0 28.81 0 14.62 0 0 Z " fill="#FFC00E" transform="translate(722,83)"/>
</svg>
